<svg width="15" height="24" viewBox="0 0 15 24" fill="none" xmlns="http://www.w3.org/2000/svg">
<path d="M1.44707 0.239807L0.241276 1.44213C0.0802556 1.60233 -9.70966e-07 1.78689 -9.61846e-07 1.99553C-9.52748e-07 2.20366 0.0802556 2.38813 0.241276 2.54834L9.72027 11.9999L0.24153 21.451C0.0805101 21.6113 0.000253207 21.7957 0.000253216 22.0041C0.000253225 22.2126 0.0805102 22.3971 0.24153 22.5573L1.44741 23.7594C1.60809 23.92 1.7931 24 2.00219 24C2.21111 24 2.39613 23.9197 2.55681 23.7594L13.7966 12.553C13.9574 12.3928 14.0377 12.2083 14.0377 11.9999C14.0377 11.7915 13.9574 11.6073 13.7966 11.4471L2.55681 0.239807C2.39604 0.0795982 2.21103 -5.73484e-07 2.00219 -5.64356e-07C1.7931 -5.55216e-07 1.60809 0.0795982 1.44707 0.239807Z" fill="#FFAD00"/>
</svg>
