<svg width="16" height="16" viewBox="0 0 16 16" fill="none" xmlns="http://www.w3.org/2000/svg">
<path d="M0.928909 2.34334C0.538384 1.95281 0.538384 1.31965 0.928909 0.929124V0.929124C1.31943 0.538599 1.9526 0.538599 2.34312 0.929124L15.071 13.657C15.4616 14.0476 15.4616 14.6807 15.071 15.0713V15.0713C14.6805 15.4618 14.0474 15.4618 13.6568 15.0713L0.928909 2.34334Z" fill="#C4C4C4"/>
<path d="M13.6569 0.928787C14.0474 0.538262 14.6806 0.538263 15.0711 0.928787V0.928787C15.4616 1.31931 15.4616 1.95248 15.0711 2.343L2.3432 15.0709C1.95268 15.4614 1.31951 15.4614 0.928985 15.0709V15.0709C0.538461 14.6804 0.538461 14.0472 0.928985 13.6567L13.6569 0.928787Z" fill="#C4C4C4"/>
</svg>
